ISO-10303-21;
HEADER;
FILE_DESCRIPTION (( 'STEP AP214' ),
    '1' );
FILE_NAME ('Part2.STEP',
    '2026-09-12T15:09:06',
    ( '' ),
    ( '' ),
    'SwSTEP 2.0',
    'SolidWorks 2024',
    '' );
FILE_SCHEMA (( 'AUTOMOTIVE_DESIGN' ));
ENDSEC;

DATA;
#1 = DIRECTION ( 'NONE',  ( -0.000000000000000000, -0.000000000000000000, -1.000000000000000000 ) ) ;
#2 = ORIENTED_EDGE ( 'NONE', *, *, #251, .T. ) ;
#3 = DIRECTION ( 'NONE',  ( 0.000000000000000000, 0.000000000000000000, 1.000000000000000000 ) ) ;
#4 = EDGE_CURVE ( 'NONE', #665, #692, #323, .T. ) ;
#5 = EDGE_CURVE ( 'NONE', #495, #382, #432, .T. ) ;
#6 = EDGE_LOOP ( 'NONE', ( #640, #215, #330, #165 ) ) ;
#7 = CARTESIAN_POINT ( 'NONE',  ( -7.999999999999986677, 8.999999999999998224, -48.61281165889330680 ) ) ;
#8 = ORIENTED_EDGE ( 'NONE', *, *, #299, .F. ) ;
#9 = DIRECTION ( 'NONE',  ( -0.000000000000000000, -0.000000000000000000, 1.000000000000000000 ) ) ;
#10 = ORIENTED_EDGE ( 'NONE', *, *, #687, .F. ) ;
#11 = VECTOR ( 'NONE', #514, 1000.000000000000000 ) ;
#12 = LINE ( 'NONE', #19, #44 ) ;
#13 = ORIENTED_EDGE ( 'NONE', *, *, #40, .T. ) ;
#14 = CIRCLE ( 'NONE', #398, 14.00000000000000000 ) ;
#15 = CARTESIAN_POINT ( 'NONE',  ( 9.000000000000012434, 6.999999999999995559, -48.61281165889330680 ) ) ;
#16 = ORIENTED_EDGE ( 'NONE', *, *, #450, .F. ) ;
#17 = AXIS2_PLACEMENT_3D ( 'NONE', #686, #135, #469 ) ;
#18 = DIRECTION ( 'NONE',  ( -1.070898574515713180E-16, -1.000000000000000000, 0.000000000000000000 ) ) ;
#19 = CARTESIAN_POINT ( 'NONE',  ( 10.00000000000001599, 8.999999999999998224, -50.61281165889330680 ) ) ;
#20 = VERTEX_POINT ( 'NONE', #164 ) ;
#21 = FACE_OUTER_BOUND ( 'NONE', #546, .T. ) ;
#22 = FILL_AREA_STYLE_COLOUR ( '', #674 ) ;
#23 = LINE ( 'NONE', #345, #513 ) ;
#24 = ORIENTED_EDGE ( 'NONE', *, *, #4, .F. ) ;
#25 = PLANE ( 'NONE',  #91 ) ;
#26 = CARTESIAN_POINT ( 'NONE',  ( -1.549999999999999822, 10.02484567313165797, -51.61281165889330680 ) ) ;
#27 = VERTEX_POINT ( 'NONE', #319 ) ;
#28 = DIRECTION ( 'NONE',  ( 0.000000000000000000, 0.000000000000000000, 1.000000000000000000 ) ) ;
#29 = LINE ( 'NONE', #347, #490 ) ;
#30 = ORIENTED_EDGE ( 'NONE', *, *, #636, .T. ) ;
#31 = CIRCLE ( 'NONE', #562, 3.049999999999999822 ) ;
#32 = DIRECTION ( 'NONE',  ( -0.000000000000000000, -0.000000000000000000, -1.000000000000000000 ) ) ;
#33 = EDGE_CURVE ( 'NONE', #471, #692, #107, .T. ) ;
#34 = CARTESIAN_POINT ( 'NONE',  ( 0.000000000000000000, 0.000000000000000000, 0.000000000000000000 ) ) ;
#35 = VERTEX_POINT ( 'NONE', #37 ) ;
#36 = DIRECTION ( 'NONE',  ( -1.000000000000000000, 0.000000000000000000, 0.000000000000000000 ) ) ;
#37 = CARTESIAN_POINT ( 'NONE',  ( 10.00000000000001599, 6.999999999999995559, -50.61281165889330680 ) ) ;
#38 = DIRECTION ( 'NONE',  ( -0.000000000000000000, -0.000000000000000000, 1.000000000000000000 ) ) ;
#39 = UNCERTAINTY_MEASURE_WITH_UNIT (LENGTH_MEASURE( 1.000000000000000082E-05 ), #89, 'distance_accuracy_value', 'NONE');
#40 = EDGE_CURVE ( 'NONE', #382, #288, #655, .T. ) ;
#41 = CARTESIAN_POINT ( 'NONE',  ( -7.999999999999986677, 8.999999999999998224, -48.61281165889330680 ) ) ;
#42 = EDGE_CURVE ( 'NONE', #294, #343, #385, .T. ) ;
#43 = DIRECTION ( 'NONE',  ( 1.000000000000000000, 0.000000000000000000, -0.000000000000000000 ) ) ;
#44 = VECTOR ( 'NONE', #352, 1000.000000000000000 ) ;
#45 = PLANE ( 'NONE',  #64 ) ;
#46 = CARTESIAN_POINT ( 'NONE',  ( -3.049999999999999822, 3.735172737399427146E-16, -50.61281165889330680 ) ) ;
#47 = ORIENTED_EDGE ( 'NONE', *, *, #132, .F. ) ;
#48 = CIRCLE ( 'NONE', #387, 3.049999999999999822 ) ;
#49 = FACE_BOUND ( 'NONE', #139, .T. ) ;
#50 = DIRECTION ( 'NONE',  ( 0.000000000000000000, 0.000000000000000000, 1.000000000000000000 ) ) ;
#51 = EDGE_LOOP ( 'NONE', ( #226, #253, #353, #611 ) ) ;
#52 = CARTESIAN_POINT ( 'NONE',  ( 1.387778780781442362E-14, 7.999999999999996447, -50.61281165889330680 ) ) ;
#53 = CIRCLE ( 'NONE', #295, 2.550000000000004707 ) ;
#54 = ORIENTED_EDGE ( 'NONE', *, *, #507, .T. ) ;
#55 = EDGE_CURVE ( 'NONE', #20, #35, #599, .T. ) ;
#56 = CARTESIAN_POINT ( 'NONE',  ( 3.049999999999999822, 15.99999999999999289, -51.71281165889330822 ) ) ;
#57 = EDGE_LOOP ( 'NONE', ( #143, #624, #647, #622 ) ) ;
#58 = LINE ( 'NONE', #190, #553 ) ;
#59 = ORIENTED_EDGE ( 'NONE', *, *, #132, .T. ) ;
#60 = DIRECTION ( 'NONE',  ( 1.000000000000000000, 0.000000000000000000, 0.000000000000000000 ) ) ;
#61 = EDGE_CURVE ( 'NONE', #27, #35, #82, .T. ) ;
#62 = EDGE_LOOP ( 'NONE', ( #313, #528 ) ) ;
#63 = ADVANCED_FACE ( 'NONE', ( #150 ), #368, .F. ) ;
#64 = AXIS2_PLACEMENT_3D ( 'NONE', #493, #716, #584 ) ;
#65 = LINE ( 'NONE', #286, #11 ) ;
#66 = ORIENTED_EDGE ( 'NONE', *, *, #365, .F. ) ;
#67 = AXIS2_PLACEMENT_3D ( 'NONE', #72, #247, #691 ) ;
#68 = DIRECTION ( 'NONE',  ( -1.000000000000000000, 0.000000000000000000, 0.000000000000000000 ) ) ;
#69 = CARTESIAN_POINT ( 'NONE',  ( 1.549999999999999378, 5.975154326868329591, -54.61281165889331390 ) ) ;
#70 = ORIENTED_EDGE ( 'NONE', *, *, #465, .F. ) ;
#71 = DIRECTION ( 'NONE',  ( 1.000000000000000000, 0.000000000000000000, 0.000000000000000000 ) ) ;
#72 = CARTESIAN_POINT ( 'NONE',  ( 7.440163305564470195E-15, 7.999999999999992895, -51.61281165889330680 ) ) ;
#73 = ORIENTED_EDGE ( 'NONE', *, *, #155, .F. ) ;
#74 = DIRECTION ( 'NONE',  ( -0.000000000000000000, -0.000000000000000000, 1.000000000000000000 ) ) ;
#75 = CIRCLE ( 'NONE', #17, 3.049999999999999822 ) ;
#76 = DIRECTION ( 'NONE',  ( -1.000000000000000000, 0.000000000000000000, 0.000000000000000000 ) ) ;
#77 = DIRECTION ( 'NONE',  ( 1.000000000000000000, 0.000000000000000000, 0.000000000000000000 ) ) ;
#78 = EDGE_CURVE ( 'NONE', #223, #471, #328, .T. ) ;
#79 = EDGE_LOOP ( 'NONE', ( #400, #614, #512, #278 ) ) ;
#80 = CARTESIAN_POINT ( 'NONE',  ( 1.549999999999999822, 10.02484567313165797, -51.61281165889330680 ) ) ;
#81 = VECTOR ( 'NONE', #298, 1000.000000000000000 ) ;
#82 = CIRCLE ( 'NONE', #359, 1.000000000000000888 ) ;
#83 = ORIENTED_EDGE ( 'NONE', *, *, #670, .F. ) ;
#84 = CARTESIAN_POINT ( 'NONE',  ( 7.440163305564470195E-15, 7.999999999999992895, -51.61281165889330680 ) ) ;
#85 = CIRCLE ( 'NONE', #145, 2.550000000000003819 ) ;
#86 = DIRECTION ( 'NONE',  ( -0.000000000000000000, -0.000000000000000000, -1.000000000000000000 ) ) ;
#87 = EDGE_LOOP ( 'NONE', ( #249, #694 ) ) ;
#88 = FACE_OUTER_BOUND ( 'NONE', #445, .T. ) ;
#89 =( LENGTH_UNIT ( ) NAMED_UNIT ( * ) SI_UNIT ( .MILLI., .METRE. ) );
#90 = EDGE_LOOP ( 'NONE', ( #549, #474, #454, #273 ) ) ;
#91 = AXIS2_PLACEMENT_3D ( 'NONE', #535, #423, #192 ) ;
#92 = DIRECTION ( 'NONE',  ( 1.000000000000000000, 0.000000000000000000, 0.000000000000000000 ) ) ;
#93 = DIRECTION ( 'NONE',  ( -0.000000000000000000, 1.000000000000000000, -0.000000000000000000 ) ) ;
#94 = CARTESIAN_POINT ( 'NONE',  ( 0.000000000000000000, 0.000000000000000000, -51.71281165889330822 ) ) ;
#95 = EDGE_CURVE ( 'NONE', #435, #288, #547, .T. ) ;
#96 = ADVANCED_FACE ( 'NONE', ( #49, #316 ), #262, .F. ) ;
#97 = DIRECTION ( 'NONE',  ( -1.000000000000000000, 0.000000000000000000, 0.000000000000000000 ) ) ;
#98 = DIRECTION ( 'NONE',  ( -1.000000000000000000, 0.000000000000000000, 0.000000000000000000 ) ) ;
#99 = DIRECTION ( 'NONE',  ( -0.000000000000000000, 0.000000000000000000, -1.000000000000000000 ) ) ;
#100 = FACE_OUTER_BOUND ( 'NONE', #481, .T. ) ;
#101 = AXIS2_PLACEMENT_3D ( 'NONE', #652, #489, #371 ) ;
#102 = ORIENTED_EDGE ( 'NONE', *, *, #638, .F. ) ;
#103 = AXIS2_PLACEMENT_3D ( 'NONE', #186, #182, #625 ) ;
#104 = CARTESIAN_POINT ( 'NONE',  ( 0.000000000000000000, 15.99999999999999289, -51.71281165889330822 ) ) ;
#105 = CARTESIAN_POINT ( 'NONE',  ( 3.049999999999999822, 0.000000000000000000, -51.71281165889330822 ) ) ;
#106 = ORIENTED_EDGE ( 'NONE', *, *, #431, .T. ) ;
#107 = CIRCLE ( 'NONE', #267, 14.00000000000000000 ) ;
#108 = VECTOR ( 'NONE', #18, 1000.000000000000000 ) ;
#109 = DIRECTION ( 'NONE',  ( 1.000000000000000000, 0.000000000000000000, 0.000000000000000000 ) ) ;
#110 = DIRECTION ( 'NONE',  ( 1.000000000000000000, 0.000000000000000000, 0.000000000000000000 ) ) ;
#111 = EDGE_CURVE ( 'NONE', #294, #386, #312, .T. ) ;
#112 = ORIENTED_EDGE ( 'NONE', *, *, #657, .F. ) ;
#113 = DIRECTION ( 'NONE',  ( 1.000000000000000000, 0.000000000000000000, 0.000000000000000000 ) ) ;
#114 = AXIS2_PLACEMENT_3D ( 'NONE', #446, #668, #168 ) ;
#115 = ORIENTED_EDGE ( 'NONE', *, *, #531, .T. ) ;
#116 = PLANE ( 'NONE',  #523 ) ;
#117 = VERTEX_POINT ( 'NONE', #710 ) ;
#118 = EDGE_CURVE ( 'NONE', #167, #178, #662, .T. ) ;
#119 = CYLINDRICAL_SURFACE ( 'NONE', #276, 3.049999999999999822 ) ;
#120 = ADVANCED_FACE ( 'NONE', ( #543 ), #45, .F. ) ;
#121 = AXIS2_PLACEMENT_3D ( 'NONE', #594, #38, #377 ) ;
#122 = ORIENTED_EDGE ( 'NONE', *, *, #616, .T. ) ;
#123 = CARTESIAN_POINT ( 'NONE',  ( -7.999999999999986677, 8.999999999999998224, -48.61281165889330680 ) ) ;
#124 = ORIENTED_EDGE ( 'NONE', *, *, #42, .T. ) ;
#125 = DIRECTION ( 'NONE',  ( -1.070898574515713180E-16, -1.000000000000000000, 0.000000000000000000 ) ) ;
#126 = VECTOR ( 'NONE', #93, 1000.000000000000000 ) ;
#127 = FACE_OUTER_BOUND ( 'NONE', #301, .T. ) ;
#128 = ORIENTED_EDGE ( 'NONE', *, *, #5, .F. ) ;
#129 = CARTESIAN_POINT ( 'NONE',  ( -3.049999999999999822, 3.735172737399427146E-16, -51.71281165889330822 ) ) ;
#130 = PLANE ( 'NONE',  #67 ) ;
#131 = VERTEX_POINT ( 'NONE', #363 ) ;
#132 = EDGE_CURVE ( 'NONE', #402, #333, #476, .T. ) ;
#133 = ADVANCED_FACE ( 'NONE', ( #188 ), #25, .F. ) ;
#134 = PRESENTATION_STYLE_ASSIGNMENT (( #350 ) ) ;
#135 = DIRECTION ( 'NONE',  ( 0.000000000000000000, 0.000000000000000000, 1.000000000000000000 ) ) ;
#136 = ORIENTED_EDGE ( 'NONE', *, *, #300, .T. ) ;
#137 = DIRECTION ( 'NONE',  ( 0.000000000000000000, -1.000000000000000000, 0.000000000000000000 ) ) ;
#138 = CARTESIAN_POINT ( 'NONE',  ( 1.549999999999999822, 10.02484567313165797, -51.61281165889330680 ) ) ;
#139 = EDGE_LOOP ( 'NONE', ( #677, #47, #66, #70 ) ) ;
#140 = DIRECTION ( 'NONE',  ( -0.000000000000000000, -0.000000000000000000, 1.000000000000000000 ) ) ;
#141 = PRESENTATION_LAYER_ASSIGNMENT (  '', '', ( #452 ) ) ;
#142 = CARTESIAN_POINT ( 'NONE',  ( 9.000000000000012434, 8.999999999999998224, -48.61281165889330680 ) ) ;
#143 = ORIENTED_EDGE ( 'NONE', *, *, #230, .F. ) ;
#144 = CARTESIAN_POINT ( 'NONE',  ( 7.440163305564470195E-15, 7.999999999999992895, -51.61281165889330680 ) ) ;
#145 = AXIS2_PLACEMENT_3D ( 'NONE', #548, #660, #709 ) ;
#146 = ORIENTED_EDGE ( 'NONE', *, *, #531, .F. ) ;
#147 = CARTESIAN_POINT ( 'NONE',  ( -13.99999999999998579, 7.999999999999996447, -50.61281165889330680 ) ) ;
#148 = AXIS2_PLACEMENT_3D ( 'NONE', #166, #3, #224 ) ;
#149 = PRODUCT ( 'Part2', 'Part2', '', ( #706 ) ) ;
#150 = FACE_OUTER_BOUND ( 'NONE', #62, .T. ) ;
#151 = LINE ( 'NONE', #369, #271 ) ;
#152 = DIRECTION ( 'NONE',  ( -0.000000000000000000, -0.000000000000000000, -1.000000000000000000 ) ) ;
#153 = DIRECTION ( 'NONE',  ( 0.000000000000000000, 0.000000000000000000, 1.000000000000000000 ) ) ;
#154 = DIRECTION ( 'NONE',  ( 2.141797149031426360E-16, 1.000000000000000000, -0.000000000000000000 ) ) ;
#155 = EDGE_CURVE ( 'NONE', #161, #576, #627, .T. ) ;
#156 = CARTESIAN_POINT ( 'NONE',  ( 0.000000000000000000, 15.99999999999999289, -50.61281165889330680 ) ) ;
#157 = FACE_OUTER_BOUND ( 'NONE', #57, .T. ) ;
#158 = DIRECTION ( 'NONE',  ( -0.000000000000000000, -0.000000000000000000, 1.000000000000000000 ) ) ;
#159 = PLANE ( 'NONE',  #550 ) ;
#160 = VECTOR ( 'NONE', #268, 1000.000000000000000 ) ;
#161 = VERTEX_POINT ( 'NONE', #701 ) ;
#162 = CARTESIAN_POINT ( 'NONE',  ( -9.999999999999987566, 8.999999999999998224, -48.61281165889330680 ) ) ;
#163 = EDGE_CURVE ( 'NONE', #421, #178, #307, .T. ) ;
#164 = CARTESIAN_POINT ( 'NONE',  ( 10.00000000000001421, 6.999999999999995559, -48.61281165889330680 ) ) ;
#165 = ORIENTED_EDGE ( 'NONE', *, *, #397, .T. ) ;
#166 = CARTESIAN_POINT ( 'NONE',  ( 9.000000000000012434, 6.999999999999995559, -48.61281165889330680 ) ) ;
#167 = VERTEX_POINT ( 'NONE', #577 ) ;
#168 = DIRECTION ( 'NONE',  ( 1.000000000000000000, 0.000000000000000000, 0.000000000000000000 ) ) ;
#169 = VECTOR ( 'NONE', #176, 1000.000000000000000 ) ;
#170 = ORIENTED_EDGE ( 'NONE', *, *, #509, .T. ) ;
#171 = EDGE_CURVE ( 'NONE', #305, #343, #31, .T. ) ;
#172 = ADVANCED_FACE ( 'NONE', ( #203 ), #296, .F. ) ;
#173 = CARTESIAN_POINT ( 'NONE',  ( 1.387778780781442362E-14, 7.999999999999996447, -50.61281165889330680 ) ) ;
#174 = AXIS2_PLACEMENT_3D ( 'NONE', #419, #629, #71 ) ;
#175 = ORIENTED_EDGE ( 'NONE', *, *, #239, .T. ) ;
#176 = DIRECTION ( 'NONE',  ( -0.000000000000000000, 1.000000000000000000, -0.000000000000000000 ) ) ;
#177 = AXIS2_PLACEMENT_3D ( 'NONE', #257, #314, #480 ) ;
#178 = VERTEX_POINT ( 'NONE', #641 ) ;
#179 = CYLINDRICAL_SURFACE ( 'NONE', #699, 1.000000000000000888 ) ;
#180 = EDGE_LOOP ( 'NONE', ( #505, #582, #680, #516 ) ) ;
#181 = CARTESIAN_POINT ( 'NONE',  ( -1.549999999999998046, 5.975154326868332255, -51.61281165889330680 ) ) ;
#182 = DIRECTION ( 'NONE',  ( -1.000000000000000000, 0.000000000000000000, 0.000000000000000000 ) ) ;
#183 = EDGE_CURVE ( 'NONE', #421, #390, #695, .T. ) ;
#184 = ORIENTED_EDGE ( 'NONE', *, *, #230, .T. ) ;
#185 = FILL_AREA_STYLE ('',( #22 ) ) ;
#186 = CARTESIAN_POINT ( 'NONE',  ( 10.00000000000001599, 8.999999999999998224, -48.61281165889330680 ) ) ;
#187 = ORIENTED_EDGE ( 'NONE', *, *, #465, .T. ) ;
#188 = FACE_OUTER_BOUND ( 'NONE', #51, .T. ) ;
#189 = LINE ( 'NONE', #181, #517 ) ;
#190 = CARTESIAN_POINT ( 'NONE',  ( 8.000000000000014211, 8.999999999999998224, -48.61281165889330680 ) ) ;
#191 = ORIENTED_EDGE ( 'NONE', *, *, #183, .F. ) ;
#192 = DIRECTION ( 'NONE',  ( -0.000000000000000000, 0.000000000000000000, -1.000000000000000000 ) ) ;
#193 = ADVANCED_FACE ( 'NONE', ( #260 ), #689, .T. ) ;
#194 = CARTESIAN_POINT ( 'NONE',  ( 0.000000000000000000, 15.99999999999999289, -51.71281165889330822 ) ) ;
#195 = EDGE_CURVE ( 'NONE', #256, #27, #589, .T. ) ;
#196 = AXIS2_PLACEMENT_3D ( 'NONE', #84, #648, #36 ) ;
#197 = ORIENTED_EDGE ( 'NONE', *, *, #111, .T. ) ;
#198 = CARTESIAN_POINT ( 'NONE',  ( 9.000000000000012434, 8.999999999999998224, -48.61281165889330680 ) ) ;
#199 = VECTOR ( 'NONE', #519, 1000.000000000000000 ) ;
#200 = DIRECTION ( 'NONE',  ( 0.000000000000000000, 0.000000000000000000, 1.000000000000000000 ) ) ;
#201 = EDGE_LOOP ( 'NONE', ( #613, #2, #601, #461 ) ) ;
#202 = AXIS2_PLACEMENT_3D ( 'NONE', #142, #565, #68 ) ;
#203 = FACE_OUTER_BOUND ( 'NONE', #564, .T. ) ;
#204 = CARTESIAN_POINT ( 'NONE',  ( 8.000000000000014211, 6.999999999999995559, -48.61281165889330680 ) ) ;
#205 = ORIENTED_EDGE ( 'NONE', *, *, #507, .F. ) ;
#206 = DIRECTION ( 'NONE',  ( 0.000000000000000000, 0.000000000000000000, 1.000000000000000000 ) ) ;
#207 = AXIS2_PLACEMENT_3D ( 'NONE', #52, #1, #561 ) ;
#208 = DIRECTION ( 'NONE',  ( -0.000000000000000000, -0.000000000000000000, -1.000000000000000000 ) ) ;
#209 = DIRECTION ( 'NONE',  ( 1.000000000000000000, 0.000000000000000000, -0.000000000000000000 ) ) ;
#210 = CARTESIAN_POINT ( 'NONE',  ( -13.99999999999998579, 7.999999999999996447, -50.61281165889330680 ) ) ;
#211 = CARTESIAN_POINT ( 'NONE',  ( 10.00000000000001599, 8.999999999999998224, -50.61281165889330680 ) ) ;
#212 = AXIS2_PLACEMENT_3D ( 'NONE', #94, #717, #274 ) ;
#213 = DIRECTION ( 'NONE',  ( -0.000000000000000000, -0.000000000000000000, -1.000000000000000000 ) ) ;
#214 = CYLINDRICAL_SURFACE ( 'NONE', #331, 2.550000000000004707 ) ;
#215 = ORIENTED_EDGE ( 'NONE', *, *, #646, .T. ) ;
#216 = CARTESIAN_POINT ( 'NONE',  ( 10.00000000000001599, 8.999999999999998224, -48.61281165889330680 ) ) ;
#217 = DIRECTION ( 'NONE',  ( -1.000000000000000000, 0.000000000000000000, 0.000000000000000000 ) ) ;
#218 = FACE_OUTER_BOUND ( 'NONE', #424, .T. ) ;
#219 = AXIS2_PLACEMENT_3D ( 'NONE', #418, #529, #92 ) ;
#220 = ORIENTED_EDGE ( 'NONE', *, *, #579, .F. ) ;
#221 = LINE ( 'NONE', #216, #169 ) ;
#222 = ORIENTED_EDGE ( 'NONE', *, *, #444, .T. ) ;
#223 = VERTEX_POINT ( 'NONE', #147 ) ;
#224 = DIRECTION ( 'NONE',  ( -1.000000000000000000, 0.000000000000000000, 0.000000000000000000 ) ) ;
#225 = ADVANCED_FACE ( 'NONE', ( #88 ), #645, .F. ) ;
#226 = ORIENTED_EDGE ( 'NONE', *, *, #650, .T. ) ;
#227 = ADVANCED_FACE ( 'NONE', ( #472 ), #693, .F. ) ;
#228 = CARTESIAN_POINT ( 'NONE',  ( -3.049999999999999822, 15.99999999999999289, -51.71281165889330822 ) ) ;
#229 = ORIENTED_EDGE ( 'NONE', *, *, #464, .F. ) ;
#230 = EDGE_CURVE ( 'NONE', #386, #294, #715, .T. ) ;
#231 = DIRECTION ( 'NONE',  ( -0.000000000000000000, -0.000000000000000000, -1.000000000000000000 ) ) ;
#232 = VECTOR ( 'NONE', #633, 1000.000000000000000 ) ;
#233 = ORIENTED_EDGE ( 'NONE', *, *, #171, .F. ) ;
#234 = PRODUCT_DEFINITION_FORMATION_WITH_SPECIFIED_SOURCE ( 'ANY', '', #149, .NOT_KNOWN. ) ;
#235 = DIRECTION ( 'NONE',  ( 0.000000000000000000, 0.000000000000000000, 1.000000000000000000 ) ) ;
#236 = AXIS2_PLACEMENT_3D ( 'NONE', #144, #32, #705 ) ;
#237 = EDGE_LOOP ( 'NONE', ( #346, #704, #417, #170 ) ) ;
#238 = DIRECTION ( 'NONE',  ( 0.000000000000000000, 0.000000000000000000, 1.000000000000000000 ) ) ;
#239 = EDGE_CURVE ( 'NONE', #665, #223, #14, .T. ) ;
#240 = FACE_OUTER_BOUND ( 'NONE', #180, .T. ) ;
#241 = ORIENTED_EDGE ( 'NONE', *, *, #251, .F. ) ;
#242 = CIRCLE ( 'NONE', #575, 14.00000000000000000 ) ;
#243 = CARTESIAN_POINT ( 'NONE',  ( 1.387778780781442362E-14, 7.999999999999996447, -50.61281165889330680 ) ) ;
#244 = DIRECTION ( 'NONE',  ( -1.000000000000000000, 0.000000000000000000, 0.000000000000000000 ) ) ;
#245 = PLANE ( 'NONE',  #678 ) ;
#246 = SURFACE_SIDE_STYLE ('',( #358 ) ) ;
#247 = DIRECTION ( 'NONE',  ( 0.000000000000000000, 0.000000000000000000, -1.000000000000000000 ) ) ;
#248 = EDGE_CURVE ( 'NONE', #555, #326, #587, .T. ) ;
#249 = ORIENTED_EDGE ( 'NONE', *, *, #33, .F. ) ;
#250 = DIRECTION ( 'NONE',  ( -1.000000000000000000, 0.000000000000000000, 0.000000000000000000 ) ) ;
#251 = EDGE_CURVE ( 'NONE', #390, #167, #151, .T. ) ;
#252 = CARTESIAN_POINT ( 'NONE',  ( 1.549999999999999822, 10.02484567313165797, -51.61281165889330680 ) ) ;
#253 = ORIENTED_EDGE ( 'NONE', *, *, #581, .F. ) ;
#254 = DIRECTION ( 'NONE',  ( 1.000000000000000000, -1.070898574515713057E-16, 0.000000000000000000 ) ) ;
#255 = DIRECTION ( 'NONE',  ( -1.000000000000000000, 0.000000000000000000, 0.000000000000000000 ) ) ;
#256 = VERTEX_POINT ( 'NONE', #525 ) ;
#257 = CARTESIAN_POINT ( 'NONE',  ( 0.000000000000000000, 0.000000000000000000, -51.71281165889330822 ) ) ;
#258 = APPLICATION_CONTEXT ( 'automotive_design' ) ;
#259 = EDGE_LOOP ( 'NONE', ( #197, #184 ) ) ;
#260 = FACE_OUTER_BOUND ( 'NONE', #722, .T. ) ;
#261 = ADVANCED_FACE ( 'NONE', ( #21 ), #245, .T. ) ;
#262 = PLANE ( 'NONE',  #511 ) ;
#263 = CARTESIAN_POINT ( 'NONE',  ( -1.549999999999999822, 10.02484567313165797, -54.61281165889331390 ) ) ;
#264 = CARTESIAN_POINT ( 'NONE',  ( 1.387778780781442362E-14, 7.999999999999996447, -54.61281165889331390 ) ) ;
#265 = CARTESIAN_POINT ( 'NONE',  ( -9.999999999999987566, 8.999999999999998224, -48.61281165889330680 ) ) ;
#266 = AXIS2_PLACEMENT_3D ( 'NONE', #408, #235, #77 ) ;
#267 = AXIS2_PLACEMENT_3D ( 'NONE', #440, #153, #110 ) ;
#268 = DIRECTION ( 'NONE',  ( -0.000000000000000000, -0.000000000000000000, -1.000000000000000000 ) ) ;
#269 = FACE_BOUND ( 'NONE', #536, .T. ) ;
#270 = VERTEX_POINT ( 'NONE', #265 ) ;
#271 = VECTOR ( 'NONE', #74, 1000.000000000000000 ) ;
#272 = PLANE ( 'NONE',  #460 ) ;
#273 = ORIENTED_EDGE ( 'NONE', *, *, #78, .F. ) ;
#274 = DIRECTION ( 'NONE',  ( 1.000000000000000000, 0.000000000000000000, 0.000000000000000000 ) ) ;
#275 = ORIENTED_EDGE ( 'NONE', *, *, #616, .F. ) ;
#276 = AXIS2_PLACEMENT_3D ( 'NONE', #675, #9, #113 ) ;
#277 = LINE ( 'NONE', #719, #487 ) ;
#278 = ORIENTED_EDGE ( 'NONE', *, *, #670, .T. ) ;
#279 = FACE_OUTER_BOUND ( 'NONE', #201, .T. ) ;
#280 = EDGE_LOOP ( 'NONE', ( #588, #356, #447, #349 ) ) ;
#281 = FACE_BOUND ( 'NONE', #280, .T. ) ;
#282 = EDGE_LOOP ( 'NONE', ( #396, #229, #673, #13 ) ) ;
#283 = FACE_OUTER_BOUND ( 'NONE', #406, .T. ) ;
#284 = VERTEX_POINT ( 'NONE', #211 ) ;
#285 = AXIS2_PLACEMENT_3D ( 'NONE', #311, #410, #250 ) ;
#286 = CARTESIAN_POINT ( 'NONE',  ( -7.999999999999986677, 6.999999999999995559, -48.61281165889330680 ) ) ;
#287 = VECTOR ( 'NONE', #685, 1000.000000000000000 ) ;
#288 = VERTEX_POINT ( 'NONE', #598 ) ;
#289 =( NAMED_UNIT ( * ) PLANE_ANGLE_UNIT ( ) SI_UNIT ( $, .RADIAN. ) );
#290 = LINE ( 'NONE', #566, #199 ) ;
#291 = APPLICATION_CONTEXT ( 'automotive_design' ) ;
#292 = ORIENTED_EDGE ( 'NONE', *, *, #711, .F. ) ;
#293 = DIRECTION ( 'NONE',  ( -0.000000000000000000, -0.000000000000000000, -1.000000000000000000 ) ) ;
#294 = VERTEX_POINT ( 'NONE', #105 ) ;
#295 = AXIS2_PLACEMENT_3D ( 'NONE', #504, #393, #612 ) ;
#296 = PLANE ( 'NONE',  #603 ) ;
#297 = DIRECTION ( 'NONE',  ( -0.000000000000000000, -0.000000000000000000, -1.000000000000000000 ) ) ;
#298 = DIRECTION ( 'NONE',  ( -0.000000000000000000, -0.000000000000000000, -1.000000000000000000 ) ) ;
#299 = EDGE_CURVE ( 'NONE', #684, #339, #85, .T. ) ;
#300 = EDGE_CURVE ( 'NONE', #284, #256, #496, .T. ) ;
#301 = EDGE_LOOP ( 'NONE', ( #524, #220, #607, #364 ) ) ;
#302 = DIRECTION ( 'NONE',  ( -1.000000000000000000, 0.000000000000000000, 0.000000000000000000 ) ) ;
#303 = CARTESIAN_POINT ( 'NONE',  ( 1.549999999999999822, 10.02484567313165797, -54.61281165889331390 ) ) ;
#304 = VECTOR ( 'NONE', #158, 1000.000000000000000 ) ;
#305 = VERTEX_POINT ( 'NONE', #46 ) ;
#306 = VECTOR ( 'NONE', #154, 1000.000000000000000 ) ;
#307 = LINE ( 'NONE', #467, #414 ) ;
#308 = LINE ( 'NONE', #252, #108 ) ;
#309 = EDGE_LOOP ( 'NONE', ( #24, #205, #442, #466 ) ) ;
#310 = PRODUCT_RELATED_PRODUCT_CATEGORY ( 'part', '', ( #149 ) ) ;
#311 = CARTESIAN_POINT ( 'NONE',  ( 7.440163305564470195E-15, 7.999999999999992895, -54.61281165889331390 ) ) ;
#312 = CIRCLE ( 'NONE', #101, 3.049999999999999822 ) ;
#313 = ORIENTED_EDGE ( 'NONE', *, *, #183, .T. ) ;
#314 = DIRECTION ( 'NONE',  ( 0.000000000000000000, 0.000000000000000000, 1.000000000000000000 ) ) ;
#315 = ADVANCED_FACE ( 'NONE', ( #100 ), #540, .T. ) ;
#316 = FACE_OUTER_BOUND ( 'NONE', #87, .T. ) ;
#317 = CARTESIAN_POINT ( 'NONE',  ( 8.000000000000014211, 8.999999999999998224, -48.61281165889330680 ) ) ;
#318 = PRODUCT_DEFINITION_CONTEXT ( 'detailed design', #291, 'design' ) ;
#319 = CARTESIAN_POINT ( 'NONE',  ( 8.000000000000014211, 6.999999999999995559, -50.61281165889330680 ) ) ;
#320 = FACE_BOUND ( 'NONE', #479, .T. ) ;
#321 =( NAMED_UNIT ( * ) SI_UNIT ( $, .STERADIAN. ) SOLID_ANGLE_UNIT ( ) );
#322 = ADVANCED_FACE ( 'NONE', ( #329 ), #433, .F. ) ;
#323 = LINE ( 'NONE', #597, #621 ) ;
#324 = ADVANCED_FACE ( 'NONE', ( #491 ), #159, .T. ) ;
#325 = CARTESIAN_POINT ( 'NONE',  ( -8.999999999999985789, 6.999999999999995559, -48.61281165889330680 ) ) ;
#326 = VERTEX_POINT ( 'NONE', #317 ) ;
#327 = CIRCLE ( 'NONE', #174, 1.000000000000000888 ) ;
#328 = LINE ( 'NONE', #210, #160 ) ;
#329 = FACE_OUTER_BOUND ( 'NONE', #457, .T. ) ;
#330 = ORIENTED_EDGE ( 'NONE', *, *, #501, .T. ) ;
#331 = AXIS2_PLACEMENT_3D ( 'NONE', #429, #606, #545 ) ;
#332 = DIRECTION ( 'NONE',  ( 0.000000000000000000, 0.000000000000000000, 1.000000000000000000 ) ) ;
#333 = VERTEX_POINT ( 'NONE', #499 ) ;
#334 = AXIS2_PLACEMENT_3D ( 'NONE', #401, #679, #244 ) ;
#335 = CARTESIAN_POINT ( 'NONE',  ( -1.549999999999999822, 10.02484567313165797, -54.61281165889331390 ) ) ;
#336 = VERTEX_POINT ( 'NONE', #381 ) ;
#337 = ADVANCED_FACE ( 'NONE', ( #218 ), #214, .F. ) ;
#338 = CARTESIAN_POINT ( 'NONE',  ( -7.999999999999986677, 6.999999999999995559, -48.61281165889330680 ) ) ;
#339 = VERTEX_POINT ( 'NONE', #372 ) ;
#340 = LINE ( 'NONE', #162, #367 ) ;
#341 = ORIENTED_EDGE ( 'NONE', *, *, #591, .T. ) ;
#342 = CARTESIAN_POINT ( 'NONE',  ( -13.99999999999998579, 7.999999999999996447, -54.61281165889331390 ) ) ;
#343 = VERTEX_POINT ( 'NONE', #653 ) ;
#344 = AXIS2_PLACEMENT_3D ( 'NONE', #198, #413, #302 ) ;
#345 = CARTESIAN_POINT ( 'NONE',  ( -1.549999999999999822, 10.02484567313165797, -51.61281165889330680 ) ) ;
#346 = ORIENTED_EDGE ( 'NONE', *, *, #195, .T. ) ;
#347 = CARTESIAN_POINT ( 'NONE',  ( 1.549999999999999378, 5.975154326868329591, -51.61281165889330680 ) ) ;
#348 = DIRECTION ( 'NONE',  ( -0.000000000000000000, -0.000000000000000000, -1.000000000000000000 ) ) ;
#349 = ORIENTED_EDGE ( 'NONE', *, *, #61, .F. ) ;
#350 = SURFACE_STYLE_USAGE ( .BOTH. , #246 ) ;
#351 = ADVANCED_FACE ( 'NONE', ( #157 ), #441, .F. ) ;
#352 = DIRECTION ( 'NONE',  ( -0.000000000000000000, 1.000000000000000000, -0.000000000000000000 ) ) ;
#353 = ORIENTED_EDGE ( 'NONE', *, *, #444, .F. ) ;
#354 = DIRECTION ( 'NONE',  ( 0.000000000000000000, 0.000000000000000000, 1.000000000000000000 ) ) ;
#355 = LINE ( 'NONE', #129, #478 ) ;
#356 = ORIENTED_EDGE ( 'NONE', *, *, #300, .F. ) ;
#357 = CARTESIAN_POINT ( 'NONE',  ( 0.000000000000000000, 15.99999999999999289, -51.71281165889330822 ) ) ;
#358 = SURFACE_STYLE_FILL_AREA ( #185 ) ;
#359 = AXIS2_PLACEMENT_3D ( 'NONE', #708, #610, #604 ) ;
#360 = AXIS2_PLACEMENT_3D ( 'NONE', #243, #86, #76 ) ;
#361 = ORIENTED_EDGE ( 'NONE', *, *, #431, .F. ) ;
#362 = AXIS2_PLACEMENT_3D ( 'NONE', #325, #721, #494 ) ;
#363 = CARTESIAN_POINT ( 'NONE',  ( 8.000000000000014211, 6.999999999999995559, -48.61281165889330680 ) ) ;
#364 = ORIENTED_EDGE ( 'NONE', *, *, #55, .T. ) ;
#365 = EDGE_CURVE ( 'NONE', #498, #402, #600, .T. ) ;
#366 = CARTESIAN_POINT ( 'NONE',  ( 1.387778780781442362E-14, 7.999999999999996447, -50.61281165889330680 ) ) ;
#367 = VECTOR ( 'NONE', #453, 1000.000000000000000 ) ;
#368 = PLANE ( 'NONE',  #492 ) ;
#369 = CARTESIAN_POINT ( 'NONE',  ( -3.049999999999999822, 15.99999999999999289, -51.71281165889330822 ) ) ;
#370 = APPLICATION_PROTOCOL_DEFINITION ( 'draft international standard', 'automotive_design', 1998, #258 ) ;
#371 = DIRECTION ( 'NONE',  ( 1.000000000000000000, 0.000000000000000000, 0.000000000000000000 ) ) ;
#372 = CARTESIAN_POINT ( 'NONE',  ( 1.549999999999999822, 10.02484567313165797, -51.61281165889330680 ) ) ;
#373 = LINE ( 'NONE', #204, #585 ) ;
#374 = ADVANCED_FACE ( 'NONE', ( #320, #269, #664, #620, #281 ), #623, .T. ) ;
#375 = ADVANCED_FACE ( 'NONE', ( #279 ), #119, .F. ) ;
#376 = DIRECTION ( 'NONE',  ( 0.000000000000000000, 0.000000000000000000, 1.000000000000000000 ) ) ;
#377 = DIRECTION ( 'NONE',  ( 1.000000000000000000, 0.000000000000000000, 0.000000000000000000 ) ) ;
#378 = EDGE_LOOP ( 'NONE', ( #567, #700, #552, #341 ) ) ;
#379 = AXIS2_PLACEMENT_3D ( 'NONE', #156, #376, #97 ) ;
#380 = CARTESIAN_POINT ( 'NONE',  ( 10.00000000000001421, 6.999999999999995559, -48.61281165889330680 ) ) ;
#381 = CARTESIAN_POINT ( 'NONE',  ( -9.999999999999987566, 8.999999999999998224, -50.61281165889330680 ) ) ;
#382 = VERTEX_POINT ( 'NONE', #7 ) ;
#383 = CIRCLE ( 'NONE', #643, 3.049999999999999822 ) ;
#384 = DIRECTION ( 'NONE',  ( 1.000000000000000000, 0.000000000000000000, 0.000000000000000000 ) ) ;
#385 = LINE ( 'NONE', #539, #304 ) ;
#386 = VERTEX_POINT ( 'NONE', #551 ) ;
#387 = AXIS2_PLACEMENT_3D ( 'NONE', #518, #238, #458 ) ;
#388 = DIRECTION ( 'NONE',  ( 0.000000000000000000, 0.000000000000000000, 1.000000000000000000 ) ) ;
#389 = ADVANCED_FACE ( 'NONE', ( #608 ), #399, .T. ) ;
#390 = VERTEX_POINT ( 'NONE', #228 ) ;
#391 = ORIENTED_EDGE ( 'NONE', *, *, #638, .T. ) ;
#392 = CIRCLE ( 'NONE', #681, 1.000000000000000888 ) ;
#393 = DIRECTION ( 'NONE',  ( 0.000000000000000000, 0.000000000000000000, -1.000000000000000000 ) ) ;
#394 = ORIENTED_EDGE ( 'NONE', *, *, #650, .F. ) ;
#395 = CARTESIAN_POINT ( 'NONE',  ( -9.999999999999985789, 6.999999999999995559, -48.61281165889330680 ) ) ;
#396 = ORIENTED_EDGE ( 'NONE', *, *, #450, .T. ) ;
#397 = EDGE_CURVE ( 'NONE', #20, #555, #221, .T. ) ;
#398 = AXIS2_PLACEMENT_3D ( 'NONE', #366, #592, #537 ) ;
#399 = CYLINDRICAL_SURFACE ( 'NONE', #207, 14.00000000000000000 ) ;
#400 = ORIENTED_EDGE ( 'NONE', *, *, #365, .T. ) ;
#401 = CARTESIAN_POINT ( 'NONE',  ( -8.999999999999985789, 8.999999999999998224, -48.61281165889330680 ) ) ;
#402 = VERTEX_POINT ( 'NONE', #335 ) ;
#403 = LINE ( 'NONE', #303, #609 ) ;
#404 = CARTESIAN_POINT ( 'NONE',  ( -1.549999999999999822, 10.02484567313165797, -51.61281165889330680 ) ) ;
#405 = PRODUCT_DEFINITION ( 'UNKNOWN', '', #234, #318 ) ;
#406 = EDGE_LOOP ( 'NONE', ( #644, #631, #128, #122 ) ) ;
#407 = LINE ( 'NONE', #682, #287 ) ;
#408 = CARTESIAN_POINT ( 'NONE',  ( -8.999999999999985789, 8.999999999999998224, -48.61281165889330680 ) ) ;
#409 = ORIENTED_EDGE ( 'NONE', *, *, #118, .F. ) ;
#410 = DIRECTION ( 'NONE',  ( 0.000000000000000000, 0.000000000000000000, -1.000000000000000000 ) ) ;
#411 = LINE ( 'NONE', #639, #81 ) ;
#412 = EDGE_LOOP ( 'NONE', ( #59, #500, #8, #590 ) ) ;
#413 = DIRECTION ( 'NONE',  ( -0.000000000000000000, -0.000000000000000000, -1.000000000000000000 ) ) ;
#414 = VECTOR ( 'NONE', #140, 1000.000000000000000 ) ;
#415 = DIRECTION ( 'NONE',  ( -0.000000000000000000, -0.000000000000000000, -1.000000000000000000 ) ) ;
#416 = CIRCLE ( 'NONE', #266, 1.000000000000000888 ) ;
#417 = ORIENTED_EDGE ( 'NONE', *, *, #646, .F. ) ;
#418 = CARTESIAN_POINT ( 'NONE',  ( 0.000000000000000000, 15.99999999999999289, -51.71281165889330822 ) ) ;
#419 = CARTESIAN_POINT ( 'NONE',  ( -8.999999999999985789, 6.999999999999995559, -48.61281165889330680 ) ) ;
#420 = CLOSED_SHELL ( 'NONE', ( #351, #375, #389, #374, #698, #96, #225, #63, #322, #324, #521, #133, #315, #451, #261, #193, #485, #538, #556, #703, #227, #120, #337, #172, #595 ) ) ;
#421 = VERTEX_POINT ( 'NONE', #56 ) ;
#422 = AXIS2_PLACEMENT_3D ( 'NONE', #542, #486, #98 ) ;
#423 = DIRECTION ( 'NONE',  ( 1.000000000000000000, 0.000000000000000000, -0.000000000000000000 ) ) ;
#424 = EDGE_LOOP ( 'NONE', ( #187, #83, #73, #391 ) ) ;
#425 = DIRECTION ( 'NONE',  ( 1.070898574515713057E-16, 1.000000000000000000, 0.000000000000000000 ) ) ;
#426 = CIRCLE ( 'NONE', #671, 1.000000000000000888 ) ;
#427 = DIRECTION ( 'NONE',  ( 1.000000000000000000, 0.000000000000000000, -0.000000000000000000 ) ) ;
#428 = EDGE_CURVE ( 'NONE', #692, #471, #242, .T. ) ;
#429 = CARTESIAN_POINT ( 'NONE',  ( 7.440163305564470195E-15, 7.999999999999992895, -51.61281165889330680 ) ) ;
#430 = DIRECTION ( 'NONE',  ( 1.000000000000000000, 0.000000000000000000, 0.000000000000000000 ) ) ;
#431 = EDGE_CURVE ( 'NONE', #117, #435, #392, .T. ) ;
#432 = LINE ( 'NONE', #41, #583 ) ;
#433 = CYLINDRICAL_SURFACE ( 'NONE', #212, 3.049999999999999822 ) ;
#434 = AXIS2_PLACEMENT_3D ( 'NONE', #173, #557, #506 ) ;
#435 = VERTEX_POINT ( 'NONE', #443 ) ;
#436 = CARTESIAN_POINT ( 'NONE',  ( -8.999999999999985789, 8.999999999999998224, -48.61281165889330680 ) ) ;
#437 = VERTEX_POINT ( 'NONE', #395 ) ;
#438 = CARTESIAN_POINT ( 'NONE',  ( -1.549999999999998046, 5.975154326868332255, -54.61281165889331390 ) ) ;
#439 = VECTOR ( 'NONE', #137, 1000.000000000000000 ) ;
#440 = CARTESIAN_POINT ( 'NONE',  ( 1.387778780781442362E-14, 7.999999999999996447, -54.61281165889331390 ) ) ;
#441 = CYLINDRICAL_SURFACE ( 'NONE', #121, 3.049999999999999822 ) ;
#442 = ORIENTED_EDGE ( 'NONE', *, *, #78, .T. ) ;
#443 = CARTESIAN_POINT ( 'NONE',  ( -7.999999999999986677, 6.999999999999995559, -50.61281165889330680 ) ) ;
#444 = EDGE_CURVE ( 'NONE', #270, #437, #340, .T. ) ;
#445 = EDGE_LOOP ( 'NONE', ( #241, #191, #618, #449 ) ) ;
#446 = CARTESIAN_POINT ( 'NONE',  ( 1.387778780781442362E-14, 7.999999999999996447, -50.61281165889330680 ) ) ;
#447 = ORIENTED_EDGE ( 'NONE', *, *, #558, .F. ) ;
#448 = CARTESIAN_POINT ( 'NONE',  ( 1.387778780781442362E-14, 7.999999999999996447, -54.61281165889331390 ) ) ;
#449 = ORIENTED_EDGE ( 'NONE', *, *, #711, .T. ) ;
#450 = EDGE_CURVE ( 'NONE', #288, #336, #426, .T. ) ;
#451 = ADVANCED_FACE ( 'NONE', ( #283 ), #116, .F. ) ;
#452 = STYLED_ITEM ( 'NONE', ( #134 ), #658 ) ;
#453 = DIRECTION ( 'NONE',  ( 0.000000000000000000, -1.000000000000000000, 0.000000000000000000 ) ) ;
#454 = ORIENTED_EDGE ( 'NONE', *, *, #428, .T. ) ;
#455 = AXIS2_PLACEMENT_3D ( 'NONE', #482, #206, #651 ) ;
#456 = CARTESIAN_POINT ( 'NONE',  ( 10.00000000000001599, 8.999999999999998224, -48.61281165889330680 ) ) ;
#457 = EDGE_LOOP ( 'NONE', ( #718, #628, #124, #115 ) ) ;
#458 = DIRECTION ( 'NONE',  ( -1.000000000000000000, 0.000000000000000000, 0.000000000000000000 ) ) ;
#459 = DIRECTION ( 'NONE',  ( -1.000000000000000000, 0.000000000000000000, 0.000000000000000000 ) ) ;
#460 = AXIS2_PLACEMENT_3D ( 'NONE', #666, #497, #617 ) ;
#461 = ORIENTED_EDGE ( 'NONE', *, *, #163, .F. ) ;
#462 = CARTESIAN_POINT ( 'NONE',  ( 8.000000000000014211, 8.999999999999998224, -48.61281165889330680 ) ) ;
#463 = LINE ( 'NONE', #404, #232 ) ;
#464 = EDGE_CURVE ( 'NONE', #270, #336, #277, .T. ) ;
#465 = EDGE_CURVE ( 'NONE', #534, #498, #53, .T. ) ;
#466 = ORIENTED_EDGE ( 'NONE', *, *, #33, .T. ) ;
#467 = CARTESIAN_POINT ( 'NONE',  ( 3.049999999999999822, 15.99999999999999289, -51.71281165889330822 ) ) ;
#468 =( LENGTH_UNIT ( ) NAMED_UNIT ( * ) SI_UNIT ( .MILLI., .METRE. ) );
#469 = DIRECTION ( 'NONE',  ( 1.000000000000000000, 0.000000000000000000, 0.000000000000000000 ) ) ;
#470 = ADVANCED_BREP_SHAPE_REPRESENTATION ( 'Part2', ( #658, #569 ), #702 ) ;
#471 = VERTEX_POINT ( 'NONE', #342 ) ;
#472 = FACE_OUTER_BOUND ( 'NONE', #412, .T. ) ;
#473 =( NAMED_UNIT ( * ) SI_UNIT ( $, .STERADIAN. ) SOLID_ANGLE_UNIT ( ) );
#474 = ORIENTED_EDGE ( 'NONE', *, *, #4, .T. ) ;
#475 = DIRECTION ( 'NONE',  ( -1.000000000000000000, 0.000000000000000000, 0.000000000000000000 ) ) ;
#476 = CIRCLE ( 'NONE', #285, 2.550000000000003819 ) ;
#477 = DIRECTION ( 'NONE',  ( -0.000000000000000000, -0.000000000000000000, 1.000000000000000000 ) ) ;
#478 = VECTOR ( 'NONE', #477, 1000.000000000000000 ) ;
#479 = EDGE_LOOP ( 'NONE', ( #146, #233 ) ) ;
#480 = DIRECTION ( 'NONE',  ( 1.000000000000000000, 0.000000000000000000, 0.000000000000000000 ) ) ;
#481 = EDGE_LOOP ( 'NONE', ( #106, #275, #112, #661 ) ) ;
#482 = CARTESIAN_POINT ( 'NONE',  ( 9.000000000000012434, 8.999999999999998224, -48.61281165889330680 ) ) ;
#483 = DIRECTION ( 'NONE',  ( 0.000000000000000000, 0.000000000000000000, 1.000000000000000000 ) ) ;
#484 = DIRECTION ( 'NONE',  ( -0.000000000000000000, 1.000000000000000000, -0.000000000000000000 ) ) ;
#485 = ADVANCED_FACE ( 'NONE', ( #502 ), #272, .F. ) ;
#486 = DIRECTION ( 'NONE',  ( 0.000000000000000000, 0.000000000000000000, 1.000000000000000000 ) ) ;
#487 = VECTOR ( 'NONE', #231, 1000.000000000000000 ) ;
#488 = PRODUCT_DEFINITION_SHAPE ( 'NONE', 'NONE',  #405 ) ;
#489 = DIRECTION ( 'NONE',  ( 0.000000000000000000, 0.000000000000000000, 1.000000000000000000 ) ) ;
#490 = VECTOR ( 'NONE', #570, 1000.000000000000000 ) ;
#491 = FACE_OUTER_BOUND ( 'NONE', #259, .T. ) ;
#492 = AXIS2_PLACEMENT_3D ( 'NONE', #104, #99, #217 ) ;
#493 = CARTESIAN_POINT ( 'NONE',  ( -1.549999999999999822, 10.02484567313165797, -51.61281165889330680 ) ) ;
#494 = DIRECTION ( 'NONE',  ( -1.000000000000000000, 0.000000000000000000, 0.000000000000000000 ) ) ;
#495 = VERTEX_POINT ( 'NONE', #338 ) ;
#496 = CIRCLE ( 'NONE', #422, 1.000000000000000888 ) ;
#497 = DIRECTION ( 'NONE',  ( 1.000000000000000000, 0.000000000000000000, -0.000000000000000000 ) ) ;
#498 = VERTEX_POINT ( 'NONE', #438 ) ;
#499 = CARTESIAN_POINT ( 'NONE',  ( 1.549999999999999822, 10.02484567313165797, -54.61281165889331390 ) ) ;
#500 = ORIENTED_EDGE ( 'NONE', *, *, #636, .F. ) ;
#501 = EDGE_CURVE ( 'NONE', #131, #20, #615, .T. ) ;
#502 = FACE_OUTER_BOUND ( 'NONE', #237, .T. ) ;
#503 = ORIENTED_EDGE ( 'NONE', *, *, #509, .F. ) ;
#504 = CARTESIAN_POINT ( 'NONE',  ( 7.440163305564470195E-15, 7.999999999999992895, -54.61281165889331390 ) ) ;
#505 = ORIENTED_EDGE ( 'NONE', *, *, #61, .T. ) ;
#506 = DIRECTION ( 'NONE',  ( 1.000000000000000000, 0.000000000000000000, -0.000000000000000000 ) ) ;
#507 = EDGE_CURVE ( 'NONE', #223, #665, #707, .T. ) ;
#508 = ORIENTED_EDGE ( 'NONE', *, *, #657, .T. ) ;
#509 = EDGE_CURVE ( 'NONE', #326, #256, #58, .T. ) ;
#510 = DIRECTION ( 'NONE',  ( 0.000000000000000000, 0.000000000000000000, 1.000000000000000000 ) ) ;
#511 = AXIS2_PLACEMENT_3D ( 'NONE', #264, #541, #427 ) ;
#512 = ORIENTED_EDGE ( 'NONE', *, *, #591, .F. ) ;
#513 = VECTOR ( 'NONE', #348, 1000.000000000000000 ) ;
#514 = DIRECTION ( 'NONE',  ( -0.000000000000000000, -0.000000000000000000, -1.000000000000000000 ) ) ;
#515 = VECTOR ( 'NONE', #720, 1000.000000000000000 ) ;
#516 = ORIENTED_EDGE ( 'NONE', *, *, #714, .T. ) ;
#517 = VECTOR ( 'NONE', #415, 1000.000000000000000 ) ;
#518 = CARTESIAN_POINT ( 'NONE',  ( 0.000000000000000000, 15.99999999999999289, -50.61281165889330680 ) ) ;
#519 = DIRECTION ( 'NONE',  ( -0.000000000000000000, -0.000000000000000000, -1.000000000000000000 ) ) ;
#520 = EDGE_LOOP ( 'NONE', ( #394, #16, #560, #361 ) ) ;
#521 = ADVANCED_FACE ( 'NONE', ( #522 ), #683, .T. ) ;
#522 = FACE_OUTER_BOUND ( 'NONE', #282, .T. ) ;
#523 = AXIS2_PLACEMENT_3D ( 'NONE', #123, #554, #510 ) ;
#524 = ORIENTED_EDGE ( 'NONE', *, *, #558, .T. ) ;
#525 = CARTESIAN_POINT ( 'NONE',  ( 8.000000000000014211, 8.999999999999998224, -50.61281165889330680 ) ) ;
#526 = FACE_OUTER_BOUND ( 'NONE', #6, .T. ) ;
#527 = DIRECTION ( 'NONE',  ( -0.000000000000000000, -0.000000000000000000, -1.000000000000000000 ) ) ;
#528 = ORIENTED_EDGE ( 'NONE', *, *, #626, .T. ) ;
#529 = DIRECTION ( 'NONE',  ( -0.000000000000000000, -0.000000000000000000, 1.000000000000000000 ) ) ;
#530 = CARTESIAN_POINT ( 'NONE',  ( 14.00000000000001421, 7.999999999999998224, -50.61281165889330680 ) ) ;
#531 = EDGE_CURVE ( 'NONE', #343, #305, #75, .T. ) ;
#532 = ORIENTED_EDGE ( 'NONE', *, *, #5, .T. ) ;
#533 = CARTESIAN_POINT ( 'NONE',  ( 0.000000000000000000, 0.000000000000000000, -50.61281165889330680 ) ) ;
#534 = VERTEX_POINT ( 'NONE', #69 ) ;
#535 = CARTESIAN_POINT ( 'NONE',  ( -9.999999999999987566, 8.999999999999998224, -48.61281165889330680 ) ) ;
#536 = EDGE_LOOP ( 'NONE', ( #292, #409 ) ) ;
#537 = DIRECTION ( 'NONE',  ( 1.000000000000000000, 0.000000000000000000, 0.000000000000000000 ) ) ;
#538 = ADVANCED_FACE ( 'NONE', ( #240 ), #179, .T. ) ;
#539 = CARTESIAN_POINT ( 'NONE',  ( 3.049999999999999822, 0.000000000000000000, -51.71281165889330822 ) ) ;
#540 = CYLINDRICAL_SURFACE ( 'NONE', #362, 1.000000000000000888 ) ;
#541 = DIRECTION ( 'NONE',  ( 0.000000000000000000, 0.000000000000000000, 1.000000000000000000 ) ) ;
#542 = CARTESIAN_POINT ( 'NONE',  ( 9.000000000000012434, 8.999999999999998224, -50.61281165889330680 ) ) ;
#543 = FACE_OUTER_BOUND ( 'NONE', #79, .T. ) ;
#544 = MECHANICAL_DESIGN_GEOMETRIC_PRESENTATION_REPRESENTATION (  '', ( #452 ), #676 ) ;
#545 = DIRECTION ( 'NONE',  ( -1.000000000000000000, 0.000000000000000000, 0.000000000000000000 ) ) ;
#546 = EDGE_LOOP ( 'NONE', ( #669, #222, #508, #532 ) ) ;
#547 = LINE ( 'NONE', #593, #126 ) ;
#548 = CARTESIAN_POINT ( 'NONE',  ( 7.440163305564470195E-15, 7.999999999999992895, -51.61281165889330680 ) ) ;
#549 = ORIENTED_EDGE ( 'NONE', *, *, #239, .F. ) ;
#550 = AXIS2_PLACEMENT_3D ( 'NONE', #656, #712, #209 ) ;
#551 = CARTESIAN_POINT ( 'NONE',  ( -3.049999999999999822, 3.735172737399427146E-16, -51.71281165889330822 ) ) ;
#552 = ORIENTED_EDGE ( 'NONE', *, *, #155, .T. ) ;
#553 = VECTOR ( 'NONE', #293, 1000.000000000000000 ) ;
#554 = DIRECTION ( 'NONE',  ( -1.000000000000000000, 0.000000000000000000, 0.000000000000000000 ) ) ;
#555 = VERTEX_POINT ( 'NONE', #456 ) ;
#556 = ADVANCED_FACE ( 'NONE', ( #127 ), #571, .F. ) ;
#557 = DIRECTION ( 'NONE',  ( 0.000000000000000000, 0.000000000000000000, 1.000000000000000000 ) ) ;
#558 = EDGE_CURVE ( 'NONE', #35, #284, #12, .T. ) ;
#559 = CARTESIAN_POINT ( 'NONE',  ( -8.999999999999985789, 8.999999999999998224, -50.61281165889330680 ) ) ;
#560 = ORIENTED_EDGE ( 'NONE', *, *, #95, .F. ) ;
#561 = DIRECTION ( 'NONE',  ( -1.000000000000000000, 0.000000000000000000, 0.000000000000000000 ) ) ;
#562 = AXIS2_PLACEMENT_3D ( 'NONE', #533, #354, #635 ) ;
#563 = EDGE_CURVE ( 'NONE', #684, #402, #23, .T. ) ;
#564 = EDGE_LOOP ( 'NONE', ( #634, #102, #10, #30 ) ) ;
#565 = DIRECTION ( 'NONE',  ( -0.000000000000000000, 0.000000000000000000, -1.000000000000000000 ) ) ;
#566 = CARTESIAN_POINT ( 'NONE',  ( -9.999999999999985789, 6.999999999999995559, -48.61281165889330680 ) ) ;
#567 = ORIENTED_EDGE ( 'NONE', *, *, #299, .T. ) ;
#568 = EDGE_CURVE ( 'NONE', #382, #270, #416, .T. ) ;
#569 = AXIS2_PLACEMENT_3D ( 'NONE', #34, #483, #430 ) ;
#570 = DIRECTION ( 'NONE',  ( -0.000000000000000000, -0.000000000000000000, -1.000000000000000000 ) ) ;
#571 = PLANE ( 'NONE',  #103 ) ;
#572 = ORIENTED_EDGE ( 'NONE', *, *, #248, .F. ) ;
#573 = CYLINDRICAL_SURFACE ( 'NONE', #360, 14.00000000000000000 ) ;
#574 = CARTESIAN_POINT ( 'NONE',  ( -1.549999999999998046, 5.975154326868332255, -51.61281165889330680 ) ) ;
#575 = AXIS2_PLACEMENT_3D ( 'NONE', #448, #388, #109 ) ;
#576 = VERTEX_POINT ( 'NONE', #574 ) ;
#577 = CARTESIAN_POINT ( 'NONE',  ( -3.049999999999999822, 15.99999999999999289, -50.61281165889330680 ) ) ;
#578 = LINE ( 'NONE', #462, #580 ) ;
#579 = EDGE_CURVE ( 'NONE', #555, #284, #411, .T. ) ;
#580 = VECTOR ( 'NONE', #697, 1000.000000000000000 ) ;
#581 = EDGE_CURVE ( 'NONE', #437, #117, #290, .T. ) ;
#582 = ORIENTED_EDGE ( 'NONE', *, *, #55, .F. ) ;
#583 = VECTOR ( 'NONE', #484, 1000.000000000000000 ) ;
#584 = DIRECTION ( 'NONE',  ( -2.141797149031426113E-16, -1.000000000000000000, 0.000000000000000000 ) ) ;
#585 = VECTOR ( 'NONE', #152, 1000.000000000000000 ) ;
#586 = CARTESIAN_POINT ( 'NONE',  ( 14.00000000000001421, 7.999999999999998224, -54.61281165889331390 ) ) ;
#587 = CIRCLE ( 'NONE', #455, 1.000000000000000888 ) ;
#588 = ORIENTED_EDGE ( 'NONE', *, *, #195, .F. ) ;
#589 = LINE ( 'NONE', #696, #439 ) ;
#590 = ORIENTED_EDGE ( 'NONE', *, *, #563, .T. ) ;
#591 = EDGE_CURVE ( 'NONE', #576, #684, #463, .T. ) ;
#592 = DIRECTION ( 'NONE',  ( 0.000000000000000000, 0.000000000000000000, 1.000000000000000000 ) ) ;
#593 = CARTESIAN_POINT ( 'NONE',  ( -7.999999999999986677, 8.999999999999998224, -50.61281165889330680 ) ) ;
#594 = CARTESIAN_POINT ( 'NONE',  ( 0.000000000000000000, 0.000000000000000000, -51.71281165889330822 ) ) ;
#595 = ADVANCED_FACE ( 'NONE', ( #630 ), #130, .T. ) ;
#596 = SHAPE_DEFINITION_REPRESENTATION ( #488, #470 ) ;
#597 = CARTESIAN_POINT ( 'NONE',  ( 14.00000000000001421, 7.999999999999998224, -50.61281165889330680 ) ) ;
#598 = CARTESIAN_POINT ( 'NONE',  ( -7.999999999999986677, 8.999999999999998224, -50.61281165889330680 ) ) ;
#599 = LINE ( 'NONE', #380, #713 ) ;
#600 = LINE ( 'NONE', #263, #306 ) ;
#601 = ORIENTED_EDGE ( 'NONE', *, *, #118, .T. ) ;
#602 = UNCERTAINTY_MEASURE_WITH_UNIT (LENGTH_MEASURE( 1.000000000000000082E-05 ), #468, 'distance_accuracy_value', 'NONE');
#603 = AXIS2_PLACEMENT_3D ( 'NONE', #80, #254, #425 ) ;
#604 = DIRECTION ( 'NONE',  ( -1.000000000000000000, 0.000000000000000000, 0.000000000000000000 ) ) ;
#605 = VECTOR ( 'NONE', #297, 1000.000000000000000 ) ;
#606 = DIRECTION ( 'NONE',  ( -0.000000000000000000, -0.000000000000000000, -1.000000000000000000 ) ) ;
#607 = ORIENTED_EDGE ( 'NONE', *, *, #397, .F. ) ;
#608 = FACE_OUTER_BOUND ( 'NONE', #90, .T. ) ;
#609 = VECTOR ( 'NONE', #125, 1000.000000000000000 ) ;
#610 = DIRECTION ( 'NONE',  ( 0.000000000000000000, 0.000000000000000000, 1.000000000000000000 ) ) ;
#611 = ORIENTED_EDGE ( 'NONE', *, *, #464, .T. ) ;
#612 = DIRECTION ( 'NONE',  ( -1.000000000000000000, 0.000000000000000000, 0.000000000000000000 ) ) ;
#613 = ORIENTED_EDGE ( 'NONE', *, *, #626, .F. ) ;
#614 = ORIENTED_EDGE ( 'NONE', *, *, #563, .F. ) ;
#615 = CIRCLE ( 'NONE', #148, 1.000000000000000888 ) ;
#616 = EDGE_CURVE ( 'NONE', #495, #435, #65, .T. ) ;
#617 = DIRECTION ( 'NONE',  ( -0.000000000000000000, 0.000000000000000000, -1.000000000000000000 ) ) ;
#618 = ORIENTED_EDGE ( 'NONE', *, *, #163, .T. ) ;
#619 = EDGE_CURVE ( 'NONE', #386, #305, #355, .T. ) ;
#620 = FACE_BOUND ( 'NONE', #520, .T. ) ;
#621 = VECTOR ( 'NONE', #208, 1000.000000000000000 ) ;
#622 = ORIENTED_EDGE ( 'NONE', *, *, #42, .F. ) ;
#623 = PLANE ( 'NONE',  #434 ) ;
#624 = ORIENTED_EDGE ( 'NONE', *, *, #619, .T. ) ;
#625 = DIRECTION ( 'NONE',  ( 0.000000000000000000, 0.000000000000000000, 1.000000000000000000 ) ) ;
#626 = EDGE_CURVE ( 'NONE', #390, #421, #383, .T. ) ;
#627 = CIRCLE ( 'NONE', #196, 2.550000000000004707 ) ;
#628 = ORIENTED_EDGE ( 'NONE', *, *, #111, .F. ) ;
#629 = DIRECTION ( 'NONE',  ( 0.000000000000000000, 0.000000000000000000, 1.000000000000000000 ) ) ;
#630 = FACE_OUTER_BOUND ( 'NONE', #378, .T. ) ;
#631 = ORIENTED_EDGE ( 'NONE', *, *, #40, .F. ) ;
#632 = LINE ( 'NONE', #138, #605 ) ;
#633 = DIRECTION ( 'NONE',  ( 2.141797149031426360E-16, 1.000000000000000000, -0.000000000000000000 ) ) ;
#634 = ORIENTED_EDGE ( 'NONE', *, *, #690, .T. ) ;
#635 = DIRECTION ( 'NONE',  ( 1.000000000000000000, 0.000000000000000000, 0.000000000000000000 ) ) ;
#636 = EDGE_CURVE ( 'NONE', #339, #333, #632, .T. ) ;
#637 = FACE_OUTER_BOUND ( 'NONE', #309, .T. ) ;
#638 = EDGE_CURVE ( 'NONE', #161, #534, #29, .T. ) ;
#639 = CARTESIAN_POINT ( 'NONE',  ( 10.00000000000001599, 8.999999999999998224, -48.61281165889330680 ) ) ;
#640 = ORIENTED_EDGE ( 'NONE', *, *, #248, .T. ) ;
#641 = CARTESIAN_POINT ( 'NONE',  ( 3.049999999999999822, 15.99999999999999289, -50.61281165889330680 ) ) ;
#642 = PLANE ( 'NONE',  #202 ) ;
#643 = AXIS2_PLACEMENT_3D ( 'NONE', #194, #200, #255 ) ;
#644 = ORIENTED_EDGE ( 'NONE', *, *, #95, .T. ) ;
#645 = CYLINDRICAL_SURFACE ( 'NONE', #219, 3.049999999999999822 ) ;
#646 = EDGE_CURVE ( 'NONE', #326, #131, #578, .T. ) ;
#647 = ORIENTED_EDGE ( 'NONE', *, *, #171, .T. ) ;
#648 = DIRECTION ( 'NONE',  ( 0.000000000000000000, 0.000000000000000000, -1.000000000000000000 ) ) ;
#649 =( NAMED_UNIT ( * ) PLANE_ANGLE_UNIT ( ) SI_UNIT ( $, .RADIAN. ) );
#650 = EDGE_CURVE ( 'NONE', #336, #117, #407, .T. ) ;
#651 = DIRECTION ( 'NONE',  ( -1.000000000000000000, 0.000000000000000000, 0.000000000000000000 ) ) ;
#652 = CARTESIAN_POINT ( 'NONE',  ( 0.000000000000000000, 0.000000000000000000, -51.71281165889330822 ) ) ;
#653 = CARTESIAN_POINT ( 'NONE',  ( 3.049999999999999822, 0.000000000000000000, -50.61281165889330680 ) ) ;
#654 = APPLICATION_PROTOCOL_DEFINITION ( 'draft international standard', 'automotive_design', 1998, #291 ) ;
#655 = LINE ( 'NONE', #659, #515 ) ;
#656 = CARTESIAN_POINT ( 'NONE',  ( 0.000000000000000000, 0.000000000000000000, -51.71281165889330822 ) ) ;
#657 = EDGE_CURVE ( 'NONE', #437, #495, #327, .T. ) ;
#658 = MANIFOLD_SOLID_BREP ( 'Cut-Extrude3', #420 ) ;
#659 = CARTESIAN_POINT ( 'NONE',  ( -7.999999999999986677, 8.999999999999998224, -48.61281165889330680 ) ) ;
#660 = DIRECTION ( 'NONE',  ( 0.000000000000000000, 0.000000000000000000, -1.000000000000000000 ) ) ;
#661 = ORIENTED_EDGE ( 'NONE', *, *, #581, .T. ) ;
#662 = CIRCLE ( 'NONE', #379, 3.049999999999999822 ) ;
#663 = DIRECTION ( 'NONE',  ( 0.000000000000000000, 0.000000000000000000, 1.000000000000000000 ) ) ;
#664 = FACE_OUTER_BOUND ( 'NONE', #667, .T. ) ;
#665 = VERTEX_POINT ( 'NONE', #530 ) ;
#666 = CARTESIAN_POINT ( 'NONE',  ( 8.000000000000014211, 8.999999999999998224, -48.61281165889330680 ) ) ;
#667 = EDGE_LOOP ( 'NONE', ( #54, #175 ) ) ;
#668 = DIRECTION ( 'NONE',  ( 0.000000000000000000, 0.000000000000000000, 1.000000000000000000 ) ) ;
#669 = ORIENTED_EDGE ( 'NONE', *, *, #568, .T. ) ;
#670 = EDGE_CURVE ( 'NONE', #576, #498, #189, .T. ) ;
#671 = AXIS2_PLACEMENT_3D ( 'NONE', #559, #332, #60 ) ;
#672 = CARTESIAN_POINT ( 'NONE',  ( -8.999999999999985789, 6.999999999999995559, -50.61281165889330680 ) ) ;
#673 = ORIENTED_EDGE ( 'NONE', *, *, #568, .F. ) ;
#674 = COLOUR_RGB ( '',1.000000000000000000, 1.000000000000000000, 0.5019607843137254832 ) ;
#675 = CARTESIAN_POINT ( 'NONE',  ( 0.000000000000000000, 15.99999999999999289, -51.71281165889330822 ) ) ;
#676 =( GEOMETRIC_REPRESENTATION_CONTEXT ( 3 ) GLOBAL_UNCERTAINTY_ASSIGNED_CONTEXT ( ( #602 ) ) GLOBAL_UNIT_ASSIGNED_CONTEXT ( ( #468, #289, #473 ) ) REPRESENTATION_CONTEXT ( 'NONE', 'WORKASPACE' ) );
#677 = ORIENTED_EDGE ( 'NONE', *, *, #690, .F. ) ;
#678 = AXIS2_PLACEMENT_3D ( 'NONE', #436, #50, #43 ) ;
#679 = DIRECTION ( 'NONE',  ( -0.000000000000000000, -0.000000000000000000, -1.000000000000000000 ) ) ;
#680 = ORIENTED_EDGE ( 'NONE', *, *, #501, .F. ) ;
#681 = AXIS2_PLACEMENT_3D ( 'NONE', #672, #663, #384 ) ;
#682 = CARTESIAN_POINT ( 'NONE',  ( -9.999999999999987566, 8.999999999999998224, -50.61281165889330680 ) ) ;
#683 = CYLINDRICAL_SURFACE ( 'NONE', #334, 1.000000000000000888 ) ;
#684 = VERTEX_POINT ( 'NONE', #26 ) ;
#685 = DIRECTION ( 'NONE',  ( 0.000000000000000000, -1.000000000000000000, 0.000000000000000000 ) ) ;
#686 = CARTESIAN_POINT ( 'NONE',  ( 0.000000000000000000, 0.000000000000000000, -50.61281165889330680 ) ) ;
#687 = EDGE_CURVE ( 'NONE', #339, #161, #308, .T. ) ;
#688 = ORIENTED_EDGE ( 'NONE', *, *, #579, .T. ) ;
#689 = CYLINDRICAL_SURFACE ( 'NONE', #344, 1.000000000000000888 ) ;
#690 = EDGE_CURVE ( 'NONE', #333, #534, #403, .T. ) ;
#691 = DIRECTION ( 'NONE',  ( -1.000000000000000000, 0.000000000000000000, -0.000000000000000000 ) ) ;
#692 = VERTEX_POINT ( 'NONE', #586 ) ;
#693 = CYLINDRICAL_SURFACE ( 'NONE', #236, 2.550000000000003819 ) ;
#694 = ORIENTED_EDGE ( 'NONE', *, *, #428, .F. ) ;
#695 = CIRCLE ( 'NONE', #723, 3.049999999999999822 ) ;
#696 = CARTESIAN_POINT ( 'NONE',  ( 8.000000000000014211, 8.999999999999998224, -50.61281165889330680 ) ) ;
#697 = DIRECTION ( 'NONE',  ( 0.000000000000000000, -1.000000000000000000, 0.000000000000000000 ) ) ;
#698 = ADVANCED_FACE ( 'NONE', ( #637 ), #573, .T. ) ;
#699 = AXIS2_PLACEMENT_3D ( 'NONE', #15, #527, #459 ) ;
#700 = ORIENTED_EDGE ( 'NONE', *, *, #687, .T. ) ;
#701 = CARTESIAN_POINT ( 'NONE',  ( 1.549999999999999378, 5.975154326868329591, -51.61281165889330680 ) ) ;
#702 =( GEOMETRIC_REPRESENTATION_CONTEXT ( 3 ) GLOBAL_UNCERTAINTY_ASSIGNED_CONTEXT ( ( #39 ) ) GLOBAL_UNIT_ASSIGNED_CONTEXT ( ( #89, #649, #321 ) ) REPRESENTATION_CONTEXT ( 'NONE', 'WORKASPACE' ) );
#703 = ADVANCED_FACE ( 'NONE', ( #526 ), #642, .F. ) ;
#704 = ORIENTED_EDGE ( 'NONE', *, *, #714, .F. ) ;
#705 = DIRECTION ( 'NONE',  ( -1.000000000000000000, 0.000000000000000000, 0.000000000000000000 ) ) ;
#706 = PRODUCT_CONTEXT ( 'NONE', #258, 'mechanical' ) ;
#707 = CIRCLE ( 'NONE', #114, 14.00000000000000000 ) ;
#708 = CARTESIAN_POINT ( 'NONE',  ( 9.000000000000012434, 6.999999999999995559, -50.61281165889330680 ) ) ;
#709 = DIRECTION ( 'NONE',  ( -1.000000000000000000, 0.000000000000000000, 0.000000000000000000 ) ) ;
#710 = CARTESIAN_POINT ( 'NONE',  ( -9.999999999999985789, 6.999999999999995559, -50.61281165889330680 ) ) ;
#711 = EDGE_CURVE ( 'NONE', #178, #167, #48, .T. ) ;
#712 = DIRECTION ( 'NONE',  ( 0.000000000000000000, 0.000000000000000000, 1.000000000000000000 ) ) ;
#713 = VECTOR ( 'NONE', #213, 1000.000000000000000 ) ;
#714 = EDGE_CURVE ( 'NONE', #131, #27, #373, .T. ) ;
#715 = CIRCLE ( 'NONE', #177, 3.049999999999999822 ) ;
#716 = DIRECTION ( 'NONE',  ( -1.000000000000000000, 2.141797149031426113E-16, 0.000000000000000000 ) ) ;
#717 = DIRECTION ( 'NONE',  ( -0.000000000000000000, -0.000000000000000000, 1.000000000000000000 ) ) ;
#718 = ORIENTED_EDGE ( 'NONE', *, *, #619, .F. ) ;
#719 = CARTESIAN_POINT ( 'NONE',  ( -9.999999999999987566, 8.999999999999998224, -48.61281165889330680 ) ) ;
#720 = DIRECTION ( 'NONE',  ( -0.000000000000000000, -0.000000000000000000, -1.000000000000000000 ) ) ;
#721 = DIRECTION ( 'NONE',  ( -0.000000000000000000, -0.000000000000000000, -1.000000000000000000 ) ) ;
#722 = EDGE_LOOP ( 'NONE', ( #136, #503, #572, #688 ) ) ;
#723 = AXIS2_PLACEMENT_3D ( 'NONE', #357, #28, #475 ) ;
ENDSEC;
END-ISO-10303-21;
